<svg id="Layer_1" data-name="Layer 1" xmlns="http://www.w3.org/2000/svg" viewBox="0 0 50 50"><defs><style>.cls-1{fill:#fff;}.cls-2{fill:#1e1e1c;}</style></defs><circle class="cls-1" cx="25" cy="25" r="25"/><path class="cls-2" d="M43.42,28.06a.75.75,0,0,1-.16.55.68.68,0,0,1-.57.26c-1.65-.14-4-.23-6.92-.29-.11.5-.28,1.4-.52,2.66s-.48,2.65-.67,4.12a29.94,29.94,0,0,0-.3,3.79c0,1.08.16,1.63.55,1.72a.4.4,0,0,1,.4.33.71.71,0,0,1-.16.55.59.59,0,0,1-.54.28c-.68,0-1.16-.49-1.27-1.48a14.86,14.86,0,0,1,0-3.65,43.62,43.62,0,0,1,.65-4.44c.3-1.5.55-2.8.79-3.88-4.1-.06-8.4,0-12.94.06-.54,2.3-1,4.34-1.33,6.06a20,20,0,0,0-.52,3.77.7.7,0,0,1-.24.58.66.66,0,0,1-.54.18c-.18,0-.3-.16-.32-.42a55.36,55.36,0,0,1,1.84-10.18,120.5,120.5,0,0,0-13.57.94.38.38,0,0,1-.46-.22h0a.65.65,0,0,1,0-.56.68.68,0,0,1,.52-.37,120.42,120.42,0,0,1,13.69-.91c0-.17.12-.43.2-.82q.51-2.05,1.41-5.95c.6-2.59,1-5.05,1.43-7.33s.4-3.62.1-4c-.35,0-1.15.55-2.31,1.79a24.07,24.07,0,0,0-2.19,2.67,9.27,9.27,0,0,0-1,1.82.44.44,0,0,1,.24.41,1,1,0,0,1-.21.49.69.69,0,0,1-.52.23.54.54,0,0,1-.54-.28,1,1,0,0,1-.06-.8,10.06,10.06,0,0,1,1.5-2.79,23.9,23.9,0,0,1,2.82-3.24,4.23,4.23,0,0,1,2.6-1.48c.71,0,1,.76,1,2.27a48.94,48.94,0,0,1-1,6.48c-.6,2.8-1.35,6.17-2.31,10a3.22,3.22,0,0,1-.11.5c4.52-.08,8.85-.11,12.93-.06q1.8-7.87,3.6-14.77c.41-1.6.76-3,1-4A.89.89,0,0,1,40,8a.64.64,0,0,1,.54,0c.14.09.18.26.14.52l-1.09,4.26c-1.15,4.48-2.38,9.32-3.57,14.6,3,.06,5.36.15,7.07.29A.38.38,0,0,1,43.42,28.06Z"/></svg>