<svg id="Layer_1" data-name="Layer 1" xmlns="http://www.w3.org/2000/svg" viewBox="0 0 238.94 238.94"><defs><style>.cls-1{fill:#fff;}.cls-2{fill:#e5e5e5;}</style></defs><path class="cls-1" d="M375.94,273.91v102H137V137H375.94v33.94H274V273.28H324.8l-34,68.15h2.67c15.38,0,30.75,0,46.12.05a3.16,3.16,0,0,0,3.35-2.05q15.77-31.77,31.69-63.46A22.78,22.78,0,0,1,375.94,273.91Zm-187.45-.61-34,68.13h2.49c15.45,0,30.89,0,46.34.05a3.2,3.2,0,0,0,3.34-2.09c10.59-21.31,21.27-42.58,31.85-63.9a10.8,10.8,0,0,0,1.11-4.63q.09-48.45,0-96.9v-2.8H137.55V273.3Z" transform="translate(-137 -137)"/><path class="cls-2" d="M375.94,273.91a22.78,22.78,0,0,0-1.35,2.06q-15.88,31.71-31.69,63.46a3.16,3.16,0,0,1-3.35,2.05c-15.37-.08-30.74-.05-46.12-.05h-2.67l34-68.15H274V170.94h102Z" transform="translate(-137 -137)"/><path class="cls-2" d="M188.49,273.3H137.55V171.16H239.63V174q0,48.45,0,96.9a10.8,10.8,0,0,1-1.11,4.63c-10.58,21.32-21.26,42.59-31.85,63.9a3.2,3.2,0,0,1-3.34,2.09c-15.45-.08-30.89-.05-46.34-.05h-2.49Z" transform="translate(-137 -137)"/></svg>