<svg id="Layer_1" data-name="Layer 1" xmlns="http://www.w3.org/2000/svg" viewBox="0 0 120 50"><defs><style>.cls-1{fill:#1d1d1b;}.cls-2{fill:none;stroke:#1d1d1b;stroke-miterlimit:10;stroke-width:0.25px;}</style></defs><path class="cls-1" d="M32,19.9a.78.78,0,0,1-.14.55.57.57,0,0,1-.49.26c-1.43-.14-3.45-.23-6-.29-.1.49-.24,1.39-.45,2.63s-.42,2.63-.58,4.08a33.45,33.45,0,0,0-.26,3.75c0,1.07.14,1.62.47,1.71a.36.36,0,0,1,.35.32.79.79,0,0,1-.14.55.5.5,0,0,1-.47.28c-.59,0-1-.49-1.1-1.47a17,17,0,0,1,0-3.61c.12-1.45.31-2.92.57-4.4s.47-2.77.68-3.84c-3.55-.06-7.28,0-11.22.06-.47,2.28-.85,4.3-1.15,6a22,22,0,0,0-.45,3.73.78.78,0,0,1-.21.58.54.54,0,0,1-.47.17c-.16,0-.26-.15-.28-.41a61.92,61.92,0,0,1,1.6-10.08A90.74,90.74,0,0,0,.49,21.4a.32.32,0,0,1-.4-.23.69.69,0,0,1,.05-.55.59.59,0,0,1,.45-.37,92.33,92.33,0,0,1,11.87-.9c0-.17.1-.43.17-.81.3-1.36.7-3.32,1.22-5.89s.91-5,1.24-7.26.35-3.58.09-4c-.3,0-1,.55-2,1.77a22.43,22.43,0,0,0-1.9,2.65,9.18,9.18,0,0,0-.87,1.8.44.44,0,0,1,.21.4,1,1,0,0,1-.18.49.59.59,0,0,1-.45.23.47.47,0,0,1-.47-.28,1.06,1.06,0,0,1-.05-.79A10.32,10.32,0,0,1,10.77,4.9a22.06,22.06,0,0,1,2.44-3.21C14.1.71,14.86.22,15.47.22s.91.75.86,2.25a54.29,54.29,0,0,1-.84,6.42c-.52,2.77-1.17,6.1-2,9.94,0,.15-.07.32-.1.49,3.92-.08,7.68-.11,11.22-.06q1.55-7.8,3.12-14.62c.35-1.59.66-2.92.89-4A.86.86,0,0,1,29,.07a.49.49,0,0,1,.47,0c.12.09.16.26.12.52l-.94,4.22c-1,4.43-2.07,9.22-3.1,14.45,2.61.06,4.65.15,6.13.29A.35.35,0,0,1,32,19.9Z"/><path class="cls-1" d="M41.8,19.87a.48.48,0,0,1,.23.41.74.74,0,0,1-.23.57,6.19,6.19,0,0,1-2.4,1.45,5.64,5.64,0,0,1-2.34.26,2.46,2.46,0,0,1-2,1.36,1.32,1.32,0,0,1-1.27-1,4.25,4.25,0,0,1,.24-2.78.77.77,0,0,1,.42-.46.46.46,0,0,1,.42.11c.12.12.12.32,0,.58A3.88,3.88,0,0,0,34.69,22c0,.49.23.75.68.75a1,1,0,0,0,.75-.4,1.42,1.42,0,0,1-.89-1,2.12,2.12,0,0,1,0-1.27,1.82,1.82,0,0,1,1.06-1.3,1,1,0,0,1,1.17.41,2.81,2.81,0,0,1,.05,2.22A5.21,5.21,0,0,0,41.31,20C41.49,19.84,41.66,19.78,41.8,19.87Zm-5.09.35c-.07-.2-.15-.32-.26-.32s-.21.12-.28.32a.75.75,0,0,0,0,.55.81.81,0,0,0,.45.46A2.9,2.9,0,0,0,36.71,20.22Z"/><path class="cls-1" d="M55.6,20a.52.52,0,0,1,.21.4.88.88,0,0,1-.28.58,1.29,1.29,0,0,0-.21.2A23,23,0,0,1,53.2,23a3.71,3.71,0,0,1-2.23.87,1.23,1.23,0,0,1-1-.4,1.79,1.79,0,0,1-.4-.93,5.66,5.66,0,0,1-.09-1.07,5.55,5.55,0,0,0-.1-1,.31.31,0,0,0-.32-.26c-.26,0-.57.23-.9.72a15.91,15.91,0,0,0-.91,1.42,8.34,8.34,0,0,1-.73,1.1.91.91,0,0,1-.7.4c-.28,0-.47-.09-.54-.29a1.62,1.62,0,0,1-.07-.72A4.34,4.34,0,0,1,45.3,22a6.87,6.87,0,0,0,.14-1.38.4.4,0,0,0-.45-.38,1.89,1.89,0,0,0-1.22.75,22.3,22.3,0,0,0-1.53,1.91c-.16.2-.32.43-.49.63a.76.76,0,0,1-.68.35c-.26,0-.37-.2-.4-.52a16.15,16.15,0,0,1,.42-2.37c.1-.4.19-.84.31-1.33a.8.8,0,0,1,.35-.52.44.44,0,0,1,.47,0c.12.09.17.26.12.52s-.12.49-.19.78c-.12.52-.23,1-.35,1.59l.33-.4a16.51,16.51,0,0,1,1.52-1.8,2.3,2.3,0,0,1,1.6-.75,1,1,0,0,1,1,.49,2.87,2.87,0,0,1,.17,1.19,9,9,0,0,1-.17,1.18l-.07.44c.12-.18.21-.35.31-.49.26-.44.51-.84.82-1.27a5.09,5.09,0,0,1,.94-1.1A1.58,1.58,0,0,1,49.28,19a1,1,0,0,1,.78.32,1.75,1.75,0,0,1,.3.81l.07.95a3.35,3.35,0,0,0,.15,1.19c.09.26.3.37.65.37A3.1,3.1,0,0,0,53,21.89a18.2,18.2,0,0,0,1.78-1.53,1.47,1.47,0,0,0,.26-.23C55.29,20,55.46,19.93,55.6,20Z"/><path class="cls-1" d="M62.45,19.84a.58.58,0,0,1,.21.44.76.76,0,0,1-.28.57c-2.16,2-4.15,3-6,3a2,2,0,0,1-1.69-.66,2.13,2.13,0,0,1-.18-1.74,3.27,3.27,0,0,1,1.17-1.85,3,3,0,0,1,1.66-.66.92.92,0,0,1,1,.75,1.48,1.48,0,0,1-.7,1.42,2.93,2.93,0,0,1-2.21.4,1.19,1.19,0,0,0,0,.46.73.73,0,0,0,.29.46,1.13,1.13,0,0,0,.75.26C58,22.82,59.82,21.92,62,20,62.15,19.81,62.31,19.76,62.45,19.84Zm-6.26.55a2.1,2.1,0,0,0,1.05-.26A1.21,1.21,0,0,0,56.19,20.39Z"/><path class="cls-1" d="M92.91,3a25.09,25.09,0,0,1-.7,3.62c-.09.37-.19.72-.28,1.07a.73.73,0,0,1-.35.49.45.45,0,0,1-.45,0c-.14-.09-.19-.26-.14-.52l.23-1a26.16,26.16,0,0,0,.68-3.12,2.47,2.47,0,0,0-.37-2.17q-.39-.47-2,.15a25,25,0,0,0-5.31,3.35A45.26,45.26,0,0,0,78.29,10a14.28,14.28,0,0,0-2.58,3.44,3.92,3.92,0,0,0-.54,2,2.74,2.74,0,0,0,1.88,2.28,12.28,12.28,0,0,0,5,.81,10,10,0,0,1,4.62.87,2.79,2.79,0,0,1,1.5,2.8q-.14,1.92-2.34,5a20.36,20.36,0,0,1-5.19,5,8.11,8.11,0,0,1-4.39,1.53c-1.2,0-1.83-.57-1.92-1.59a3.15,3.15,0,0,1,.44-1.73,10.91,10.91,0,0,1,2.16-2.72c.21-.14.38-.2.52-.14a.48.48,0,0,1,.23.4.88.88,0,0,1-.28.61C76,29.93,75.31,31,75.31,31.78c.07.58.59.84,1.57.78a8.27,8.27,0,0,0,3.71-1.5,18.86,18.86,0,0,0,4.56-4.51,11.21,11.21,0,0,0,2-3.7,2,2,0,0,0-.87-2.34c-.82-.55-2.33-.81-4.46-.81q-7.29,0-7.6-3.9Q74,11.38,83.83,3.92,90.45-1.15,92.21.33A2.92,2.92,0,0,1,92.91,3Z"/><path class="cls-1" d="M108.59,9.73a.85.85,0,0,1-.12.57.51.51,0,0,1-.49.29H94.65l-1.27,5.73C92,22.82,91.06,27,90.73,28.92a8.23,8.23,0,0,0-.12,1,1.15,1.15,0,0,0,.07.46.21.21,0,0,0,.19.12c.21,0,.33.08.35.29a.93.93,0,0,1-.11.6.54.54,0,0,1-.5.29.81.81,0,0,1-.91-.78A6.74,6.74,0,0,1,89.77,29c.26-1.7,1.15-6,2.67-12.71q.57-2.57,1.25-5.73H87.38c-.17,0-.26-.08-.29-.29a.93.93,0,0,1,.14-.57.45.45,0,0,1,.45-.29H94c.4-1.88.84-3.9,1.33-6.1a.77.77,0,0,1,.36-.52.44.44,0,0,1,.47,0,.51.51,0,0,1,.11.52c-.47,2.2-.91,4.22-1.31,6.1h13.3C108.43,9.44,108.57,9.52,108.59,9.73Z"/><path class="cls-1" d="M106.22,19.84a.66.66,0,0,1,0,.52.75.75,0,0,1-.42.47,13.85,13.85,0,0,0-5.63,4.1c-.77,3.67-1.6,6.91-2.44,9.68S96,39.29,95.07,40.28c-.58.55-1.12.72-1.64.46s-.73-1-.66-2.37a21.9,21.9,0,0,1,2-6.5,32.3,32.3,0,0,1,4.55-7.35l.61-2.86c0-.14,0-.26.07-.4a9.41,9.41,0,0,1-2.44,2,4.07,4.07,0,0,1-1.71.52,1.12,1.12,0,0,1-1.13-.66,3.18,3.18,0,0,1-.16-1.62,8.57,8.57,0,0,1,.49-2.05.72.72,0,0,1,.4-.47.43.43,0,0,1,.44.09c.12.12.12.32,0,.58a8.6,8.6,0,0,0-.35,1.24,3.07,3.07,0,0,0,0,1.19.53.53,0,0,0,.54.52,3.14,3.14,0,0,0,.94-.23,5.06,5.06,0,0,0,1.43-1,13.08,13.08,0,0,0,2-2.11.63.63,0,0,1,.64-.29c.21.09.28.29.21.67s-.14.78-.26,1.33-.28,1.27-.44,2.11a13.7,13.7,0,0,1,5.18-3.41A.35.35,0,0,1,106.22,19.84ZM96.86,34.38c.75-2.51,1.43-5.12,2-7.8A31.74,31.74,0,0,0,95.26,33a19.31,19.31,0,0,0-1.5,5.21,2.48,2.48,0,0,0,.12,1.3c.11.31.35.31.7,0A15.59,15.59,0,0,0,96.86,34.38Z"/><path class="cls-1" d="M112.53,19.84a.5.5,0,0,1,.26.41.71.71,0,0,1-.26.58,18,18,0,0,1-2.6,2.25,4.08,4.08,0,0,1-2.28.75,1.77,1.77,0,0,1-1.94-1.36,9.65,9.65,0,0,1,.07-4c.3-1.77.75-4,1.33-6.62.19-.78.38-1.62.57-2.49.07-.37.16-.75.23-1.13l.26-1.09a.84.84,0,0,1,.35-.55.44.44,0,0,1,.47,0,.54.54,0,0,1,.12.55l-.24,1.09c-.09.38-.18.76-.25,1.13-.22.93-.4,1.79-.59,2.63-.49,2.23-.89,4.16-1.17,5.75a11.79,11.79,0,0,0-.26,3.67c.11.87.56,1.3,1.31,1.3a3.25,3.25,0,0,0,1.71-.57A16.19,16.19,0,0,0,112,20C112.23,19.84,112.39,19.78,112.53,19.84Z"/><path class="cls-1" d="M119.36,19.84a.62.62,0,0,1,.22.44.78.78,0,0,1-.29.57c-2.16,2-4.15,3-6,3a1.93,1.93,0,0,1-1.69-.66,2.09,2.09,0,0,1-.19-1.74,3.32,3.32,0,0,1,1.17-1.85,3,3,0,0,1,1.67-.66.9.9,0,0,1,1,.75,1.48,1.48,0,0,1-.7,1.42,2.92,2.92,0,0,1-2.21.4,1,1,0,0,0,0,.46.67.67,0,0,0,.28.46,1.15,1.15,0,0,0,.75.26c1.53.15,3.36-.75,5.49-2.68C119.06,19.81,119.22,19.76,119.36,19.84Zm-6.26.55a2.1,2.1,0,0,0,1.05-.26A1.21,1.21,0,0,0,113.1,20.39Z"/><path class="cls-1" d="M15.69,49.86V49h-.77v.9h-.51V47.48h.51v.9h.77v-.9h.52v2.38Z"/><path class="cls-1" d="M21.72,49.93a1.21,1.21,0,0,1-1.12-1.26,1.2,1.2,0,0,1,1.12-1.24,1.19,1.19,0,0,1,1.11,1.24A1.2,1.2,0,0,1,21.72,49.93Zm0-1.9a.65.65,0,1,0,.57.64A.61.61,0,0,0,21.72,48Z"/><path class="cls-1" d="M28.69,49.86V48.62l-.54.6-.58-.6s0,.12,0,.18v1.06h-.52V47.34l.9.93.19.2a1.34,1.34,0,0,1,.17-.2l.89-.93v2.52Z"/><path class="cls-1" d="M33.87,49.85V47.47h1.34v.58h-.83v.33h.83V49h-.83v.32h.83v.58Z"/><path class="cls-1" d="M44.81,50c-.18-.21-.27-.32-.31-.38s0,0,0,0a.64.64,0,0,1-.54.27.76.76,0,0,1-.71-.78.83.83,0,0,1,.21-.54s0,0,.08-.05l0,0a.8.8,0,0,1-.14-.45.6.6,0,1,1,1.19,0,.85.85,0,0,1-.15.47s0,0-.08.05l.11.14c.09-.12.18-.25.33-.49l.45.35c-.18.3-.3.44-.39.57.09.12.19.24.39.46Zm-.91-1.1-.08.05a.2.2,0,0,0,0,.14.21.21,0,0,0,.19.23c.06,0,.12,0,.14,0l.07-.08Zm.06-1c-.05,0-.12.06-.12.1s0,.1.12.19a.25.25,0,0,1,.07-.09.12.12,0,0,0,0-.1A.13.13,0,0,0,44,47.93Z"/><path class="cls-1" d="M53.26,48.92v.91h-.52V47.44h1.33V48h-.81v.32h.81v.57Z"/><path class="cls-1" d="M59.8,49.91c-.61,0-1-.54-1-1.22V47.48h.53v1.21c0,.34.16.63.46.63s.47-.29.47-.63V47.48h.52v1.21C60.79,49.37,60.42,49.91,59.8,49.91Z"/><path class="cls-1" d="M66.84,50s-.4-.54-.67-.88l-.09-.14v.94h-.51V47.5h.66a.68.68,0,0,1,.67.72.61.61,0,0,1-.27.57l0,0,0,0c.24.28.57.69.57.69ZM66.23,48h-.18v.37h.18a.17.17,0,0,0,.18-.17A.21.21,0,0,0,66.23,48Z"/><path class="cls-1" d="M72.14,48.55v1.32h-.51V47.36l1.53,1.43s0-.08,0-.12V47.49h.51V50Z"/><path class="cls-1" d="M78.81,49.86V47.48h.51v2.38Z"/><path class="cls-1" d="M85.77,48.06v1.8h-.51v-1.8H84.6v-.58h1.85v.58Z"/><path class="cls-1" d="M92.18,48.8v1.06h-.51V48.8l-.9-1,.35-.43.81.88.82-.87.33.42S92.46,48.51,92.18,48.8Z"/><path class="cls-1" d="M99,50l-.67-.88a1.28,1.28,0,0,1-.09-.14v.94h-.52V47.5h.67a.67.67,0,0,1,.66.72.61.61,0,0,1-.26.57s0,0,0,0l0,0,.58.69ZM98.34,48h-.17v.37h.17a.17.17,0,0,0,.18-.17A.21.21,0,0,0,98.34,48Z"/><path class="cls-1" d="M104.08,49.85V47.47h1.34v.58h-.83v.33h.83V49h-.83v.32h.83v.58Z"/><line class="cls-2" y1="49.2" x2="12" y2="49.2"/><line class="cls-2" x1="108" y1="49.2" x2="120" y2="49.2"/></svg>