<svg id="Layer_1" data-name="Layer 1" xmlns="http://www.w3.org/2000/svg" viewBox="0 0 120 43.61"><defs><style>.cls-1{fill:#1d1d1b;}.cls-2{fill:none;stroke:#1d1d1b;stroke-miterlimit:10;stroke-width:0.25px;}</style></defs><path class="cls-1" d="M32,19.11a.61.61,0,0,1-.14.48.59.59,0,0,1-.49.23c-1.43-.13-3.45-.2-6-.25-.1.42-.24,1.2-.45,2.27s-.42,2.28-.58,3.54a25.15,25.15,0,0,0-.26,3.25c0,.93.14,1.4.47,1.48s.33.12.35.27a.61.61,0,0,1-.14.48.53.53,0,0,1-.47.25c-.59,0-1-.43-1.1-1.28a12.77,12.77,0,0,1,0-3.13,36.35,36.35,0,0,1,.57-3.8c.25-1.28.47-2.41.68-3.33-3.55-.05-7.28,0-11.22.05-.47,2-.85,3.73-1.15,5.23a16.72,16.72,0,0,0-.45,3.23.63.63,0,0,1-.21.5.58.58,0,0,1-.47.15c-.16,0-.26-.13-.28-.35a47,47,0,0,1,1.6-8.74,104.28,104.28,0,0,0-11.74.78c-.21,0-.35-.05-.4-.2a.53.53,0,0,1,.05-.48.6.6,0,0,1,.45-.32,104.18,104.18,0,0,1,11.87-.78c0-.15.1-.38.17-.7.3-1.18.7-2.88,1.22-5.11s.91-4.31,1.24-6.29.35-3.1.09-3.45q-.45,0-2,1.53a18.67,18.67,0,0,0-1.9,2.3,7.69,7.69,0,0,0-.87,1.55.38.38,0,0,1,.21.35.81.81,0,0,1-.18.43.67.67,0,0,1-.45.2.5.5,0,0,1-.47-.25.79.79,0,0,1-.05-.68,8.38,8.38,0,0,1,1.34-2.4,19.51,19.51,0,0,1,2.44-2.78,3.72,3.72,0,0,1,2.26-1.28c.63,0,.91.65.86,2a41,41,0,0,1-.84,5.55c-.52,2.41-1.17,5.29-2,8.62,0,.12-.07.27-.1.42,3.92-.07,7.68-.1,11.22-.05q1.55-6.75,3.12-12.67c.35-1.37.66-2.53.89-3.5A.73.73,0,0,1,29,1.94a.49.49,0,0,1,.47,0q.18.1.12.45L28.68,6c-1,3.84-2.07,8-3.1,12.52q3.92.07,6.13.25A.32.32,0,0,1,32,19.11Z" transform="translate(0 -1.87)"/><path class="cls-1" d="M41.8,19.09a.42.42,0,0,1,.23.35.6.6,0,0,1-.23.5,6.44,6.44,0,0,1-2.4,1.25,6.54,6.54,0,0,1-2.34.23,2.53,2.53,0,0,1-2,1.18,1.3,1.3,0,0,1-1.27-.86,3.21,3.21,0,0,1,.24-2.4.7.7,0,0,1,.42-.4.48.48,0,0,1,.42.1c.12.1.12.28,0,.5a3,3,0,0,0-.28,1.38.6.6,0,0,0,.68.65,1,1,0,0,0,.75-.35,1.33,1.33,0,0,1-.89-.83,1.6,1.6,0,0,1,0-1.1,1.65,1.65,0,0,1,1.06-1.13,1.06,1.06,0,0,1,1.17.35c.31.38.31,1,.05,1.93a5.66,5.66,0,0,0,3.78-1.23C41.49,19.06,41.66,19,41.8,19.09Zm-5.09.3c-.07-.18-.15-.28-.26-.28s-.21.1-.28.28a.58.58,0,0,0,0,.48.76.76,0,0,0,.45.4A2.22,2.22,0,0,0,36.71,19.39Z" transform="translate(0 -1.87)"/><path class="cls-1" d="M55.6,19.21a.47.47,0,0,1,.21.36.74.74,0,0,1-.28.5,1.57,1.57,0,0,0-.21.17,23,23,0,0,1-2.12,1.53,4.07,4.07,0,0,1-2.23.75,1.32,1.32,0,0,1-1-.35,1.49,1.49,0,0,1-.4-.8,4.37,4.37,0,0,1-.09-.93,4.25,4.25,0,0,0-.1-.85.3.3,0,0,0-.32-.22c-.26,0-.57.2-.9.62a14.31,14.31,0,0,0-.91,1.23,7.42,7.42,0,0,1-.73,1,.94.94,0,0,1-.7.35c-.28,0-.47-.07-.54-.25a1.26,1.26,0,0,1-.07-.63,3.26,3.26,0,0,1,.12-.75,5.18,5.18,0,0,0,.14-1.2.39.39,0,0,0-.45-.32,1.93,1.93,0,0,0-1.22.65,19.87,19.87,0,0,0-1.53,1.65c-.16.17-.32.37-.49.55a.78.78,0,0,1-.68.3c-.26,0-.37-.17-.4-.45A12,12,0,0,1,41.09,20c.1-.35.19-.73.31-1.16a.72.72,0,0,1,.35-.45.55.55,0,0,1,.47,0,.39.39,0,0,1,.12.45c-.05.2-.12.43-.19.68-.12.45-.23.9-.35,1.38l.33-.35A16.13,16.13,0,0,1,43.65,19a2.49,2.49,0,0,1,1.6-.65,1,1,0,0,1,1,.43,2.15,2.15,0,0,1,.17,1,7,7,0,0,1-.17,1l-.07.38c.12-.15.21-.3.31-.43.26-.37.51-.72.82-1.1a5,5,0,0,1,.94-1,1.72,1.72,0,0,1,1.05-.38,1,1,0,0,1,.78.28,1.39,1.39,0,0,1,.3.7l.07.83a2.5,2.5,0,0,0,.15,1c.09.23.3.33.65.33A3.38,3.38,0,0,0,53,20.84a17.13,17.13,0,0,0,1.78-1.32c.1-.08.19-.13.26-.2S55.46,19.14,55.6,19.21Z" transform="translate(0 -1.87)"/><path class="cls-1" d="M62.45,19.06a.5.5,0,0,1,.21.38.64.64,0,0,1-.28.5c-2.16,1.73-4.15,2.58-6,2.58a2.08,2.08,0,0,1-1.69-.58,1.61,1.61,0,0,1-.18-1.5,2.8,2.8,0,0,1,1.17-1.6,3.26,3.26,0,0,1,1.66-.58.91.91,0,0,1,1,.65,1.23,1.23,0,0,1-.7,1.23,3.23,3.23,0,0,1-2.21.35.9.9,0,0,0,0,.4.64.64,0,0,0,.29.4,1.33,1.33,0,0,0,.75.23c1.52.12,3.35-.65,5.49-2.33C62.15,19,62.31,19,62.45,19.06Zm-6.26.48a2.42,2.42,0,0,0,1.05-.22A1.36,1.36,0,0,0,56.19,19.54Z" transform="translate(0 -1.87)"/><path class="cls-1" d="M92.91,4.44a19,19,0,0,1-.7,3.13c-.09.33-.19.63-.28.93a.63.63,0,0,1-.35.42.45.45,0,0,1-.45,0c-.14-.07-.19-.22-.14-.45l.23-.82a20.26,20.26,0,0,0,.68-2.71,1.93,1.93,0,0,0-.37-1.88c-.26-.27-.94-.22-2,.13a26.37,26.37,0,0,0-5.31,2.9,43.73,43.73,0,0,0-5.89,4.44,12.62,12.62,0,0,0-2.58,3,3,3,0,0,0-.54,1.72c.07.85.68,1.51,1.88,2a13.91,13.91,0,0,0,5,.7,11.41,11.41,0,0,1,4.62.75,2.36,2.36,0,0,1,1.5,2.43c-.09,1.1-.87,2.56-2.34,4.33a19.36,19.36,0,0,1-5.19,4.36,9,9,0,0,1-4.39,1.33c-1.2,0-1.83-.5-1.92-1.38a2.46,2.46,0,0,1,.44-1.5,9.54,9.54,0,0,1,2.16-2.35.62.62,0,0,1,.52-.13.42.42,0,0,1,.23.35.74.74,0,0,1-.28.53c-1.38,1.17-2.09,2.1-2.09,2.78.07.5.59.72,1.57.67a8.92,8.92,0,0,0,3.71-1.3,17.81,17.81,0,0,0,4.56-3.91,9.24,9.24,0,0,0,2-3.2,1.66,1.66,0,0,0-.87-2,9.9,9.9,0,0,0-4.46-.7q-7.29,0-7.6-3.38Q74,11.74,83.83,5.27,90.45.88,92.21,2.16A2.31,2.31,0,0,1,92.91,4.44Z" transform="translate(0 -1.87)"/><path class="cls-1" d="M108.59,10.3a.66.66,0,0,1-.12.5.53.53,0,0,1-.49.25H94.65l-1.27,5C92,21.64,91.06,25.3,90.73,26.93a6.22,6.22,0,0,0-.12.9.89.89,0,0,0,.07.4.23.23,0,0,0,.19.1c.21,0,.33.07.35.25a.75.75,0,0,1-.11.53.57.57,0,0,1-.5.25c-.54,0-.84-.23-.91-.68A5,5,0,0,1,89.77,27q.39-2.22,2.67-11,.57-2.22,1.25-5H87.38a.26.26,0,0,1-.29-.25.75.75,0,0,1,.14-.5.47.47,0,0,1,.45-.25H94c.4-1.63.84-3.38,1.33-5.28a.65.65,0,0,1,.36-.45.49.49,0,0,1,.47,0c.11.07.16.22.11.45-.47,1.9-.91,3.65-1.31,5.28h13.3C108.43,10.05,108.57,10.13,108.59,10.3Z" transform="translate(0 -1.87)"/><path class="cls-1" d="M106.22,19.06a.52.52,0,0,1,0,.46.72.72,0,0,1-.42.4,13.89,13.89,0,0,0-5.63,3.55c-.77,3.18-1.6,6-2.44,8.39a12.75,12.75,0,0,1-2.68,4.91,1.56,1.56,0,0,1-1.64.4c-.52-.23-.73-.9-.66-2.05a17.18,17.18,0,0,1,2-5.64,27.53,27.53,0,0,1,4.55-6.36l.61-2.48c0-.12,0-.22.07-.35A9.28,9.28,0,0,1,97.56,22a4.47,4.47,0,0,1-1.71.46,1.16,1.16,0,0,1-1.13-.58,2.4,2.4,0,0,1-.16-1.4,6.71,6.71,0,0,1,.49-1.78.63.63,0,0,1,.4-.4.45.45,0,0,1,.44.07c.12.1.12.28,0,.5A7.18,7.18,0,0,0,95.59,20a2.31,2.31,0,0,0,0,1,.49.49,0,0,0,.54.45,3.6,3.6,0,0,0,.94-.2,5,5,0,0,0,1.43-.83,12.38,12.38,0,0,0,2-1.83.67.67,0,0,1,.64-.25c.21.08.28.25.21.58s-.14.68-.26,1.15-.28,1.1-.44,1.83a14.14,14.14,0,0,1,5.18-3A.4.4,0,0,1,106.22,19.06Zm-9.36,12.6c.75-2.18,1.43-4.43,2-6.76a26.71,26.71,0,0,0-3.62,5.53,15,15,0,0,0-1.5,4.51,1.89,1.89,0,0,0,.12,1.13c.11.27.35.27.7,0A12.68,12.68,0,0,0,96.86,31.66Z" transform="translate(0 -1.87)"/><path class="cls-1" d="M112.53,19.06a.45.45,0,0,1,.26.36c0,.17-.07.32-.26.5a18.34,18.34,0,0,1-2.6,1.95,4.56,4.56,0,0,1-2.28.65c-1.05,0-1.71-.4-1.94-1.18a7.27,7.27,0,0,1,.07-3.5c.3-1.53.75-3.46,1.33-5.74.19-.67.38-1.4.57-2.15.07-.32.16-.65.23-1l.26-1a.73.73,0,0,1,.35-.47.49.49,0,0,1,.47,0,.42.42,0,0,1,.12.47l-.24,1c-.09.33-.18.66-.25,1-.22.8-.4,1.55-.59,2.28-.49,1.93-.89,3.6-1.17,5a8.89,8.89,0,0,0-.26,3.18,1.2,1.2,0,0,0,1.31,1.13,3.62,3.62,0,0,0,1.71-.5A15.71,15.71,0,0,0,112,19.21.52.52,0,0,1,112.53,19.06Z" transform="translate(0 -1.87)"/><path class="cls-1" d="M119.36,19.06a.54.54,0,0,1,.22.38.65.65,0,0,1-.29.5c-2.16,1.73-4.15,2.58-6,2.58a2.06,2.06,0,0,1-1.69-.58,1.58,1.58,0,0,1-.19-1.5,2.84,2.84,0,0,1,1.17-1.6,3.3,3.3,0,0,1,1.67-.58.89.89,0,0,1,1,.65,1.23,1.23,0,0,1-.7,1.23,3.22,3.22,0,0,1-2.21.35.77.77,0,0,0,0,.4.59.59,0,0,0,.28.4,1.36,1.36,0,0,0,.75.23c1.53.12,3.36-.65,5.49-2.33C119.06,19,119.22,19,119.36,19.06Zm-6.26.48a2.42,2.42,0,0,0,1.05-.22A1.36,1.36,0,0,0,113.1,19.54Z" transform="translate(0 -1.87)"/><path class="cls-1" d="M19,45.37v-.71h-.71v.71h-.48V43.51h.48v.7H19v-.7h.48v1.86Z" transform="translate(0 -1.87)"/><path class="cls-1" d="M24.58,45.42a1,1,0,1,1,0-2,1,1,0,1,1,0,2Zm0-1.48a.51.51,0,1,0,0,1,.51.51,0,1,0,0-1Z" transform="translate(0 -1.87)"/><path class="cls-1" d="M31,45.37v-1l-.5.47L30,44.4v1h-.47v-2l.82.72.18.16.16-.16.82-.72v2Z" transform="translate(0 -1.87)"/><path class="cls-1" d="M35.82,45.36V43.5h1.24V44h-.77v.25h.77v.45h-.77v.25h.77v.45Z" transform="translate(0 -1.87)"/><path class="cls-1" d="M46,45.48l-.3-.3h0a.67.67,0,0,1-.51.21.65.65,0,0,1-.65-.62.62.62,0,0,1,.2-.42l.07,0a0,0,0,0,0,0,0,.58.58,0,0,1-.13-.35.53.53,0,0,1,.54-.51.54.54,0,0,1,.57.51.53.53,0,0,1-.15.36l-.07,0,.11.11c.07-.09.16-.19.3-.38l.41.27c-.17.23-.28.35-.35.45a2.7,2.7,0,0,0,.35.36Zm-.85-.86-.07,0s-.05.07-.05.11a.17.17,0,0,0,.18.18c.06,0,.11,0,.13,0l.06-.06Zm0-.76s-.11,0-.11.08,0,.07.11.15a.3.3,0,0,1,.07-.08.07.07,0,0,0,.05-.07S45.21,43.86,45.15,43.86Z" transform="translate(0 -1.87)"/><path class="cls-1" d="M53.76,44.64v.7h-.48V43.48h1.23v.46h-.75v.25h.75v.45Z" transform="translate(0 -1.87)"/><path class="cls-1" d="M59.82,45.41a.9.9,0,0,1-.92-.95v-1h.49v1a.44.44,0,0,0,.43.49.45.45,0,0,0,.43-.49v-1h.48v1A.89.89,0,0,1,59.82,45.41Z" transform="translate(0 -1.87)"/><path class="cls-1" d="M66.33,45.45l-.62-.69-.08-.11v.74h-.48V43.52h.62a.59.59,0,0,1,.61.57.45.45,0,0,1-.25.44s0,0,0,0l0,0,.53.54Zm-.57-1.51H65.6v.29h.16a.16.16,0,0,0,.17-.14A.18.18,0,0,0,65.76,43.94Z" transform="translate(0 -1.87)"/><path class="cls-1" d="M71.23,44.35v1h-.47v-2l1.41,1.11v-1h.47v2Z" transform="translate(0 -1.87)"/><path class="cls-1" d="M77.4,45.37V43.51h.47v1.86Z" transform="translate(0 -1.87)"/><path class="cls-1" d="M83.84,44v1.41h-.47V44h-.62v-.45h1.72V44Z" transform="translate(0 -1.87)"/><path class="cls-1" d="M89.77,44.54v.83H89.3v-.83l-.83-.76.32-.34.75.7.76-.69.31.33Z" transform="translate(0 -1.87)"/><path class="cls-1" d="M96,45.45l-.62-.69-.08-.11v.74h-.48V43.52h.62a.59.59,0,0,1,.61.57.46.46,0,0,1-.24.44s0,0,0,0l0,0,.53.54Zm-.57-1.51h-.16v.29h.16a.16.16,0,0,0,.17-.14A.18.18,0,0,0,95.47,43.94Z" transform="translate(0 -1.87)"/><path class="cls-1" d="M100.78,45.36V43.5H102V44h-.77v.25H102v.45h-.77v.25H102v.45Z" transform="translate(0 -1.87)"/><line class="cls-2" y1="42.63" x2="12" y2="42.63"/><line class="cls-2" x1="108" y1="42.63" x2="120" y2="42.63"/></svg>