<svg id="Layer_1" data-name="Layer 1" xmlns="http://www.w3.org/2000/svg" viewBox="0 0 400 76.35"><defs><style>.cls-1{fill:#040712;}</style></defs><path class="cls-1" d="M43.1,51.23H36.57q0,11.18.47,23.66a.72.72,0,0,0,.24.52,2.93,2.93,0,0,0,.68.47,12.76,12.76,0,0,0,1.52.61,28,28,0,0,0,4.37.82c2.19.3,3.44.48,3.76.54a9.24,9.24,0,0,1-.29,5.77q-17.32-.37-21-.37-2.53,0-17.7.37a8,8,0,0,1,0-6.05q10.19-1,10.28-2.77.57-11.74.56-29.54,0-15.12-.47-26.15-.09-1.74-10.47-2.77a9.52,9.52,0,0,1,.19-6.06q14.42.48,19.11.47H71.27Q72.44,20,78.6,30.14q-1.08,2.27-5,3.67A31.78,31.78,0,0,0,62.23,22.14q-7.48-4.68-19.41-4.67H37q-.47,16.85-.47,25.87c1.54.06,3.74.09,6.62.09a8,8,0,0,0,6.29-2.65,39.61,39.61,0,0,0,5.17-8.29l2-3.94q3.94,1.41,5,3.61-5,9-5,14.75,0,6.24,5,14.69-1.12,2.4-4.78,3.66a28,28,0,0,1-2.49-4.41c-1.29-2.13-2.3-3.72-3.06-4.76A14.39,14.39,0,0,0,48,52.92a8.62,8.62,0,0,0-4.88-1.69M29.34,48.46l13.38-.1a10.9,10.9,0,0,1,3.81.66,14.64,14.64,0,0,1,2.84,1.34A10.39,10.39,0,0,1,51.81,53c.92,1.29,1.58,2.22,2,2.8a39.85,39.85,0,0,1,2,3.59c.93,1.81,1.54,3,1.86,3.52a3.75,3.75,0,0,0,1.83-1.27q-4.69-8.35-4.7-14.69a24,24,0,0,1,1.34-7.09,38.32,38.32,0,0,1,3.36-7.66c-.13-.44-.74-.84-1.83-1.22-.25.44-.75,1.38-1.48,2.82s-1.22,2.37-1.43,2.79-.67,1.2-1.34,2.33a12.28,12.28,0,0,1-1.6,2.25L50.07,42.8A6.69,6.69,0,0,1,48,44.3a18.17,18.17,0,0,1-2.37.73,12.2,12.2,0,0,1-2.87.33q-8.78,0-13.38-.19,0-11.37.56-29.63h13q23,0,31.55,15.87a2.67,2.67,0,0,0,1.6-1.27q-4.69-9.57-10.52-13.52T48.17,12.68H26.48q-5.88,0-16.48-.38v2.21q10.8,1,10.89,4.51.46,11,.47,26.24,0,14.9-.57,29.63Q20.7,78.37,9.9,79.4a3.24,3.24,0,0,0,0,2.2q8-.27,16.39-.28,10,0,19.2.28a3.24,3.24,0,0,0,0-2.2Q30,78.45,29.81,74.89q-.46-11.08-.47-26.43Z" transform="translate(-8 -8.83)"/><path class="cls-1" d="M122.14,70q.38-11.74,0-23.52c0-1.1-2.37-2-7.09-2.82a7.74,7.74,0,0,1,0-5.68h20.28a5.36,5.36,0,0,1,1.9,1.12,5.79,5.79,0,0,1,1.06,1.79,23.38,23.38,0,0,1-.24,2.68,25.37,25.37,0,0,0-.23,2.91q-.48,15.45,0,26.9A28.1,28.1,0,0,0,145,74.61a8.83,8.83,0,0,1,0,6q-6.15.38-15.21,4.23c-3.41-.25-6-1.29-7.6-3.1V80.48a27.67,27.67,0,0,1-15.26,4.13q-6.39,0-9.07-3.47T95,70.24q.1-11.77,0-23.8,0-1.65-7.13-2.82a8.05,8.05,0,0,1,0-5.68h20.37a5.37,5.37,0,0,1,2,1.12,5.6,5.6,0,0,1,1.06,1.79,23.38,23.38,0,0,1-.24,2.68,25.37,25.37,0,0,0-.23,2.91q-.33,10.94,0,22.3c.12,3.57.77,5.65,1.92,6.24q3.44-.89,9.4-5m1.92-23.52q.28,12.21,0,24.51-8.73,6.24-13.48,6.24-6.42,0-6.43-8.45-.29-11.37,0-22.3a22.22,22.22,0,0,1,.26-3.06c.17-1.18.26-1.94.26-2.25a2.85,2.85,0,0,0-1.36-1.45,103.25,103.25,0,0,1-13.85,0,3.32,3.32,0,0,0,0,2.2q7.41,1.17,7.51,4.56.09,11.93,0,23.8c-.06,4.26.67,7.4,2.21,9.42s4.1,3,7.7,3q7.08,0,17.18-8.78v6.86A2.81,2.81,0,0,0,125.7,82a66.06,66.06,0,0,1,17.42-3.33,3.35,3.35,0,0,0,0-2.21q-8.07-.33-11.92-1.93-.37-16.76,0-28.07a25.13,25.13,0,0,1,.23-3.06c.16-1.18.24-1.94.24-2.25a2.63,2.63,0,0,0-1.36-1.45,126.32,126.32,0,0,1-13.76,0,3.32,3.32,0,0,0,0,2.2q7.41,1.17,7.51,4.56Z" transform="translate(-8 -8.83)"/><path class="cls-1" d="M181.41,74.8q.09,1.83,6.33,2.86a5.81,5.81,0,0,1-.18,6q-19.92-.65-30.1-.28a5.32,5.32,0,0,1-.19-5.68q7.89-1,8-2.86.57-13.38.1-26.86a37.4,37.4,0,0,0-8.55-1.22,8.49,8.49,0,0,1,0-6,50.27,50.27,0,0,0,16.62-4.23q5.07.55,7.61,3,3.94-2.86,7.09-2.86a8.35,8.35,0,0,1,6,2.16,7.81,7.81,0,0,1,2.3,6,7.56,7.56,0,0,1-2.16,5.73,7.7,7.7,0,0,1-5.54,2.06,7.15,7.15,0,0,1-5.26-2.11A12.85,12.85,0,0,0,181,55.26q0,10.2.38,19.54Zm-7-19.91a21,21,0,0,1,4.84-8.41q3.66-4.08,7.46-4.08c3,0,4.46,1,4.46,2.86a3.11,3.11,0,0,1-2.44,3.29,2,2,0,0,0,0,2.21,5.79,5.79,0,0,0,4.16-1.55,5.72,5.72,0,0,0,1.62-4.32,6,6,0,0,0-1.76-4.58,6.41,6.41,0,0,0-4.58-1.67,11.81,11.81,0,0,0-7.35,2.94,36.08,36.08,0,0,0-6.41,6.55V40.05a2.78,2.78,0,0,0-1.59-1.22,45.52,45.52,0,0,1-14.56,3.85,4.36,4.36,0,0,0,0,2.21c4.23.18,7.25.83,9.06,1.92q.38,17.52-.09,28.08c-.06,2.32-2.73,3.82-8,4.51a1.88,1.88,0,0,0,0,2.2q12.3-.55,26.81,0a2,2,0,0,0,0-2.2q-11.13-1-11.23-4.51-.42-9.52-.42-20" transform="translate(-8 -8.83)"/><path class="cls-1" d="M238.84,83.11a7.19,7.19,0,0,1,0-5.68,6.71,6.71,0,0,0,3.1-.83c1.07-.54,1.6-1.19,1.6-1.94l.09-22.07c0-3.41-.67-5.5-2-6.25q-3.47.85-9.34,5.07,0,12.92.38,23.15.22,2.49,3.75,2.87a7.19,7.19,0,0,1,0,5.68q-13.76-.48-27.65,0a7.1,7.1,0,0,1,0-5.68q7.65-1,7.74-2.87.52-13.24,0-26.62a34.8,34.8,0,0,0-7.74-1.22,8.49,8.49,0,0,1,0-6,47.26,47.26,0,0,0,16-4.23q5.07.38,7.56,3v1.55a27.13,27.13,0,0,1,15.31-4.41q6.33,0,9,3.45T259.41,51q.18,18.65.47,23.62.09,1.92,6.62,2.77a7.1,7.1,0,0,1-.19,5.68Q252.55,82.83,238.84,83.11Zm1.51-4a2.46,2.46,0,0,0,0,2.3q12.21-.27,24.46,0a2.17,2.17,0,0,0,0-2.3q-11.46-.55-11.55-4.5L252.79,51c-.16-4.29-.85-7.43-2.09-9.42s-3.4-3-6.5-3q-7.8,0-18.55,10.75V40.05A2.81,2.81,0,0,0,224,38.83a43.47,43.47,0,0,1-13.57,3.85,4.36,4.36,0,0,0,0,2.21c3.6.18,6.26.83,8,1.92q.51,14,0,27.85-.09,3.47-8.08,4.5a2.52,2.52,0,0,0,0,2.3q12.21-.46,24.56,0a2.46,2.46,0,0,0,0-2.3c-5.85-.62-8.81-2.13-8.87-4.5q-.37-9.78-.38-22.26,9.43-8.31,14.79-8.31,5.12,0,5.12,8.5l-.1,22.07a3.55,3.55,0,0,1-1.4,3.21,9.67,9.67,0,0,1-3.71,1.29" transform="translate(-8 -8.83)"/><path class="cls-1" d="M341.36,38.22a82.74,82.74,0,0,0-3.71-7.44,59.82,59.82,0,0,0-4.51-6.58,20.12,20.12,0,0,0-6.71-5.65,23.27,23.27,0,0,0-8.74-2.45,17.64,17.64,0,0,0-9.34,3.41,19.89,19.89,0,0,0-6.17,7.63,42.38,42.38,0,0,0-3.2,9.65,52.15,52.15,0,0,0-1,10.3q0,11.83,6,19.87t17.79,8.59q11.46-.57,18-8.55a4.68,4.68,0,0,1,3.2,1.2A3.65,3.65,0,0,1,344.27,71a30.08,30.08,0,0,1-12.82,10.52,38.05,38.05,0,0,1-15.59,3.61,42.21,42.21,0,0,1-9.51-1.1,39.43,39.43,0,0,1-10-3.9,35.94,35.94,0,0,1-9.09-7,31.81,31.81,0,0,1-6.43-11,43.73,43.73,0,0,1-2.49-15.15A44,44,0,0,1,281,31.48a31.17,31.17,0,0,1,6.62-11A35.73,35.73,0,0,1,297,13.59a40.55,40.55,0,0,1,10.5-3.75,52,52,0,0,1,10.26-1,69.38,69.38,0,0,1,15.3,1.87q8.27,1.89,11.84,2.35a33.57,33.57,0,0,0-1.22,10.64,44.5,44.5,0,0,0,2.67,11.2,6.23,6.23,0,0,1-5,3.33Zm-25.5,45A36.56,36.56,0,0,0,330.49,80a27.27,27.27,0,0,0,11.85-9.61,1.27,1.27,0,0,0-.54-1,1.88,1.88,0,0,0-1.19-.42q-7,8.53-20.71,8.54-14.41,0-21.76-8.71t-7.35-21.67a49.28,49.28,0,0,1,1.29-11.34,41.63,41.63,0,0,1,4-10.47,21.51,21.51,0,0,1,7.84-8.1,22.5,22.5,0,0,1,11.9-3.09,24.59,24.59,0,0,1,8.59,1.45A24,24,0,0,1,330.93,19a26,26,0,0,1,5,5.28A45.67,45.67,0,0,1,339.55,30q1.24,2.41,3,6.13c.94-.13,1.52-.47,1.74-1q-3.48-13.93-10.49-19.13t-17.92-5.19a39.81,39.81,0,0,0-9,1.06,36.08,36.08,0,0,0-9.46,3.75,34.82,34.82,0,0,0-8.57,6.67,30.66,30.66,0,0,0-6.11,10.43,41.36,41.36,0,0,0-2.39,14.43,41.22,41.22,0,0,0,2.39,14.42,30.4,30.4,0,0,0,6.11,10.38,34.29,34.29,0,0,0,8.57,6.59,37,37,0,0,0,9.46,3.71,39.81,39.81,0,0,0,9,1.06" transform="translate(-8 -8.83)"/><path class="cls-1" d="M384.15,36.72a27.77,27.77,0,0,1,10.12,1.73,20.91,20.91,0,0,1,7.49,4.91,21.12,21.12,0,0,1,4.64,7.58,28.32,28.32,0,0,1,1.6,9.72,28.17,28.17,0,0,1-1.6,9.68,21.21,21.21,0,0,1-4.62,7.58,20.73,20.73,0,0,1-7.49,4.93,27.5,27.5,0,0,1-10.14,1.76,27.15,27.15,0,0,1-10.07-1.76,20.74,20.74,0,0,1-7.47-4.93A21.22,21.22,0,0,1,362,70.36a28.08,28.08,0,0,1-1.6-9.7,28.32,28.32,0,0,1,1.6-9.72A20.42,20.42,0,0,1,374.1,38.45a27.43,27.43,0,0,1,10-1.73m-1.65,46A18.08,18.08,0,0,0,390.35,81a17.38,17.38,0,0,0,5.94-4.58,20.51,20.51,0,0,0,3.77-7,30.16,30.16,0,0,0,0-17.65,20.56,20.56,0,0,0-3.77-7,17.47,17.47,0,0,0-5.94-4.57,18.08,18.08,0,0,0-7.85-1.65,20.68,20.68,0,0,0-8.4,1.65,18.1,18.1,0,0,0-6.36,4.55,20.31,20.31,0,0,0-4,7,28.57,28.57,0,0,0,0,17.73,20.59,20.59,0,0,0,4,7,17.73,17.73,0,0,0,6.36,4.55,21,21,0,0,0,8.4,1.62m0-41q4.85,0,7.68,4.63T393,60.66q0,9.72-2.84,14.32t-7.68,4.61a10.48,10.48,0,0,1-4.86-1.13,9.73,9.73,0,0,1-3.7-3.48,18.71,18.71,0,0,1-2.38-5.89,36.92,36.92,0,0,1-.84-8.43,37.26,37.26,0,0,1,.84-8.42,18.51,18.51,0,0,1,2.38-5.92,10,10,0,0,1,3.7-3.48,10.37,10.37,0,0,1,4.86-1.15m-5.16,19q0,15.16,6.81,16.81,6.94-1.64,7-16.81,0-15-7-16.85Q377.34,45.64,377.34,60.66Z" transform="translate(-8 -8.83)"/></svg>